<svg width="42" height="42" viewBox="0 0 42 42" fill="none" xmlns="http://www.w3.org/2000/svg">
<path d="M35.7494 4.98962H6.29026C5.5818 4.98962 5.00943 5.562 5.00943 6.27046V35.7296C5.00943 36.438 5.5818 37.0104 6.29026 37.0104H35.7494C36.4578 37.0104 37.0302 36.438 37.0302 35.7296V6.27046C37.0302 5.562 36.4578 4.98962 35.7494 4.98962ZM32.051 14.3357H29.4933C27.488 14.3357 27.0998 15.2883 27.0998 16.6892V19.7752H31.8869L31.2625 24.6064H27.0998V37.0104H22.1085V24.6104H17.9338V19.7752H22.1085V16.2129C22.1085 12.0782 24.6342 9.82476 28.3246 9.82476C30.0937 9.82476 31.6107 9.95685 32.055 10.0169V14.3357H32.051Z" fill="white"/>
</svg>
