<svg width="42" height="42" viewBox="0 0 42 42" fill="none" xmlns="http://www.w3.org/2000/svg">
<path d="M35.7372 4.98962H6.27805C5.56959 4.98962 4.99722 5.562 4.99722 6.27046V35.7296C4.99722 36.438 5.56959 37.0104 6.27805 37.0104H35.7372C36.4456 37.0104 37.018 36.438 37.018 35.7296V6.27046C37.018 5.562 36.4456 4.98962 35.7372 4.98962ZM14.4954 32.2753H9.7443V16.9934H14.4954V32.2753ZM12.1218 14.9041C11.5772 14.9041 11.0448 14.7426 10.5919 14.44C10.1391 14.1374 9.7861 13.7073 9.57767 13.2041C9.36924 12.7009 9.31471 12.1472 9.42096 11.613C9.52722 11.0789 9.78949 10.5882 10.1746 10.203C10.5597 9.81792 11.0504 9.55565 11.5846 9.4494C12.1188 9.34314 12.6725 9.39768 13.1757 9.6061C13.6789 9.81453 14.1089 10.1675 14.4115 10.6203C14.7141 11.0732 14.8756 11.6056 14.8756 12.1503C14.8716 13.6713 13.6388 14.9041 12.1218 14.9041ZM32.2829 32.2753H27.5358V24.8425C27.5358 23.0694 27.5038 20.7919 25.0662 20.7919C22.5966 20.7919 22.2164 22.7211 22.2164 24.7144V32.2753H17.4733V16.9934H22.0283V19.0828H22.0923C22.7247 17.882 24.2737 16.6132 26.5872 16.6132C31.3983 16.6132 32.2829 19.7792 32.2829 23.8939V32.2753V32.2753Z" fill="white"/>
</svg>
