<svg width="42" height="42" viewBox="0 0 42 42" fill="none" xmlns="http://www.w3.org/2000/svg">
<path d="M37.684 10.6854C36.4592 11.2137 35.1263 11.5939 33.7534 11.742C35.1788 10.8952 36.2462 9.55742 36.7554 7.9796C35.4179 8.77527 33.9526 9.33321 32.4246 9.62867C31.7859 8.94593 31.0136 8.40203 30.1555 8.03086C29.2975 7.65969 28.3722 7.4692 27.4373 7.47127C23.6549 7.47127 20.6129 10.5373 20.6129 14.2997C20.6129 14.828 20.677 15.3564 20.781 15.8647C15.1174 15.5685 10.0661 12.8628 6.7079 8.72008C6.096 9.76522 5.77535 10.9552 5.7793 12.1663C5.7793 14.5359 6.98408 16.6252 8.82127 17.854C7.73858 17.8114 6.68125 17.5138 5.73527 16.9854V17.0695C5.73527 20.3876 8.08079 23.1374 11.2068 23.7698C10.6199 23.9223 10.0161 24.0003 9.40965 24.002C8.96536 24.002 8.54509 23.958 8.12082 23.8979C8.98538 26.6037 11.503 28.569 14.501 28.633C12.1554 30.4702 9.21753 31.5509 6.02746 31.5509C5.45509 31.5509 4.92674 31.5309 4.37839 31.4668C7.40435 33.4081 10.9947 34.5288 14.8612 34.5288C27.4133 34.5288 34.2818 24.1301 34.2818 15.1042C34.2818 14.808 34.2818 14.5118 34.2618 14.2156C35.5906 13.243 36.7554 12.0382 37.684 10.6854Z" fill="white"/>
</svg>
