<svg width="150" height="60" viewBox="0 0 150 60" fill="none" xmlns="http://www.w3.org/2000/svg">
<g clip-path="url(#clip0_2_2)">
<g clip-path="url(#clip1_2_2)">
<path d="M0 0V4.10107H29.1688V0H0ZM33.3015 0V4.10107H74.8683C74.8683 4.10107 70.6223 0 64.999 0H33.3015V0ZM83.0224 0V4.10107H108.17L106.677 0H83.0224V0ZM126.199 0L124.706 4.10107H149.625V0H126.199V0ZM0 7.97561V12.0767H29.1688V7.97561H0ZM33.3015 7.98146V12.0767H79.6917C79.6917 12.0767 79.15 8.92039 78.2049 7.98146H33.3015ZM83.0224 7.98146V12.0767H110.927L109.545 7.98146H83.0224ZM123.214 7.98146L121.832 12.0767H149.625V7.98146H123.214V7.98146ZM8.38244 15.9512V20.0576H21.0146V15.9512H8.38244ZM41.6839 15.9512V20.0576H54.3161V15.9512H41.6839ZM66.6029 15.9512V20.0576H79.2351C79.2351 20.0576 80.0371 17.8888 80.0371 15.9509H66.6029V15.9512ZM91.4049 15.9512V20.0576H113.801L112.308 15.9509H91.4049V15.9512ZM120.462 15.9512L118.964 20.0579H141.471V15.9512H120.462ZM8.38244 23.9327V28.0332H21.0146V23.9327H8.38244ZM41.6839 23.9327V28.0332H73.9493C73.9493 28.0332 76.6484 25.9288 77.5083 23.9321H41.6839V23.9327ZM91.4049 23.9327V28.0332H104.037V25.7502L104.839 28.0332H127.979L128.839 25.7502V28.0332H141.471V23.9327H117.758L116.5 27.4065L115.235 23.9327H91.4049ZM8.38244 31.9077V36.0088H21.0146V31.9077H8.38244ZM41.6839 31.9077V36.0088H77.5083C76.6481 34.0185 73.9493 31.9077 73.9493 31.9077H41.6839V31.9077ZM91.4049 31.9077V36.0088H104.037V31.9077H91.4049ZM106.332 31.9077L107.86 36.0088H125.21L126.661 31.9077H106.332ZM128.839 31.9077V36.0088H141.471V31.9077H128.839V31.9077ZM8.38244 39.8833V43.9844H21.0146V39.8833H8.38244V39.8833ZM41.6839 39.8833V43.9844H54.3161V39.8833H41.6839ZM66.6029 39.8833V43.9844H80.0371C80.0371 42.0489 79.2351 39.8833 79.2351 39.8833H66.6029V39.8833ZM91.4049 39.8833V43.9844H104.037V39.8833H91.4049V39.8833ZM109.2 39.8833L110.681 43.9844H122.312L123.805 39.8833H109.2V39.8833ZM128.839 39.8833V43.9844H141.471V39.8833H128.839V39.8833ZM0.228293 47.8592V51.9659H29.3971V47.8589H0.228293V47.8592ZM33.3015 47.8592V51.9659H78.2049C79.15 51.0255 79.6917 47.8589 79.6917 47.8589H33.3015V47.8592ZM83.2507 47.8592V51.9659H104.037V47.8589H83.2507V47.8592ZM112.074 47.8592L113.596 51.9659H119.514L120.942 47.8589H112.074V47.8592ZM128.839 47.8592V51.9659H149.854V47.8589H128.839V47.8592ZM0.228293 55.8404V59.9415H29.3971V55.8404H0.228293ZM33.3015 55.8404V59.9353H64.999C70.6223 59.9353 74.8683 55.8401 74.8683 55.8401H33.3015V55.8404ZM83.2507 55.8404V59.9415H104.037V55.8404H83.2507ZM114.96 55.8404L116.423 59.9295L116.675 59.9353L118.162 55.8401H114.96V55.8404ZM128.839 55.8404V59.9415H149.854V55.8404H128.839Z" fill="#1F70C1"/>
</g>
</g>
<defs>
<clipPath id="clip0_2_2">
<rect width="149.854" height="60" fill="white"/>
</clipPath>
<clipPath id="clip1_2_2">
<rect width="149.854" height="60" fill="white"/>
</clipPath>
</defs>
</svg>
