<svg width="45" height="42" viewBox="0 0 45 42" fill="none" xmlns="http://www.w3.org/2000/svg">
<path d="M18.2498 41.65C22.4031 40.0167 21.4931 35.5134 19.3931 32.6667C17.3164 29.75 14.4464 27.7434 11.5531 25.8067C9.48868 24.5055 7.64545 22.8829 6.0931 21C5.43976 20.23 4.10976 18.8067 5.4631 18.5267C6.83976 18.2467 9.21976 19.6 10.4331 20.1134C12.5564 21 14.6564 22.0267 16.6164 23.24L18.9731 19.2734C15.3331 16.87 10.6664 14.7467 6.32643 14.1167C3.8531 13.7434 1.23976 14.2567 0.399763 16.94C-0.346904 19.25 0.843096 21.5834 2.19643 23.4034C5.3931 27.6734 10.3631 29.7267 14.0731 33.4134C14.8664 34.1834 15.8231 35.0934 16.2898 36.1667C16.7798 37.1934 16.6631 37.2634 15.5664 37.2634C12.6731 37.2634 9.05643 35 6.69976 33.5067L4.3431 37.4734C7.9131 39.6667 13.8864 43.0967 18.2498 41.65V41.65ZM44.1264 5.25004C44.6398 4.73671 44.6398 3.89671 44.1264 3.40671L41.0931 0.373377C40.8487 0.137838 40.5225 0.00623322 40.1831 0.00623322C39.8437 0.00623322 39.5175 0.137838 39.2731 0.373377L36.8931 2.75338L41.7464 7.60671L44.1264 5.25004ZM21.1664 18.48V23.3334H26.0198L40.3698 8.98338L35.5164 4.13004L21.1664 18.48Z" fill="#2091F9"/>
</svg>
