<svg width="194" height="64" viewBox="0 0 194 64" fill="none" xmlns="http://www.w3.org/2000/svg">
<g clip-path="url(#clip0_0_3)">
<path d="M187.715 38.8052L193.069 42.3561C191.331 44.9023 187.175 49.2711 179.989 49.2711C171.066 49.2711 164.421 42.4029 164.421 33.6658C164.421 24.3684 171.136 18.0609 179.238 18.0609C187.386 18.0609 191.378 24.5083 192.67 27.9891L193.374 29.7647L172.381 38.4081C173.978 41.5386 176.467 43.1271 179.989 43.1271C183.512 43.1271 185.954 41.3983 187.715 38.8052ZM171.254 33.1757L185.273 27.3819C184.498 25.4432 182.197 24.0651 179.449 24.0651C175.951 24.0651 171.09 27.1487 171.254 33.1757Z" fill="#FF302F"/>
<path d="M154.3 2.15239H161.062V47.8461H154.3V2.15201V2.15239Z" fill="#20B15A"/>
<path d="M143.639 19.2756H150.167V47.0282C150.167 58.5448 143.334 63.2871 135.256 63.2871C127.648 63.2871 123.069 58.1946 121.354 54.0598L127.342 51.5833C128.422 54.1296 131.029 57.1434 135.256 57.1434C140.445 57.1434 143.639 53.9428 143.639 47.9627V45.7202H143.404C141.854 47.5888 138.895 49.2707 135.138 49.2707C127.295 49.2707 120.109 42.4727 120.109 33.7127C120.109 24.9054 127.295 18.0377 135.138 18.0377C138.872 18.0377 141.854 19.6963 143.404 21.5184H143.639V19.2759V19.2756ZM144.108 33.7127C144.108 28.1994 140.422 24.1813 135.725 24.1813C130.982 24.1813 126.99 28.1994 126.99 33.7127C126.99 39.1554 130.982 43.1034 135.725 43.1034C140.422 43.1271 144.109 39.1554 144.109 33.7127H144.108Z" fill="#3686F7"/>
<path d="M82.9838 33.5957C82.9838 42.5897 75.9393 49.2006 67.2976 49.2006C58.6564 49.2006 51.6115 42.5664 51.6115 33.5957C51.6115 24.5552 58.6564 17.9676 67.2976 17.9676C75.9393 17.9676 82.9838 24.5552 82.9838 33.5957ZM76.127 33.5957C76.127 27.9895 72.0408 24.1345 67.2976 24.1345C62.5544 24.1345 58.4683 27.9895 58.4683 33.5957C58.4683 39.1554 62.5544 43.0569 67.2976 43.0569C72.0412 43.0569 76.127 39.1554 76.127 33.5957Z" fill="#FF302F"/>
<path d="M117.245 33.6658C117.245 42.6598 110.2 49.2707 101.559 49.2707C92.917 49.2707 85.8725 42.6594 85.8725 33.6658C85.8725 24.6253 92.917 18.0609 101.559 18.0609C110.2 18.0609 117.245 24.6021 117.245 33.6658ZM110.364 33.6658C110.364 28.0596 106.278 24.2046 101.535 24.2046C96.7917 24.2046 92.7055 28.0596 92.7055 33.6658C92.7055 39.2256 96.7917 43.1271 101.535 43.1271C106.302 43.1271 110.364 39.2023 110.364 33.6658Z" fill="#FFBA40"/>
<path d="M25.8278 42.4262C15.9886 42.4262 8.28667 34.5302 8.28667 24.742C8.28667 14.9541 15.9886 7.05808 25.8278 7.05808C31.1349 7.05808 35.0093 9.13708 37.8741 11.8003L42.5943 7.10495C38.6024 3.2972 33.2719 0.39995 25.8278 0.39995C12.3491 0.400325 1.00695 11.3335 1.00695 24.742C1.00695 38.1512 12.3491 49.084 25.8278 49.084C33.1075 49.084 38.6024 46.7012 42.8996 42.2627C47.3141 37.8707 48.6761 31.7035 48.6761 26.7043C48.6761 25.1391 48.4884 23.5273 48.2769 22.336H25.8278V28.8302H41.8193C41.3496 32.8952 40.0582 35.6751 38.1561 37.567C35.8548 39.88 32.2153 42.4262 25.8278 42.4262Z" fill="#3686F7"/>
</g>
<defs>
<clipPath id="clip0_0_3">
<rect width="193" height="63" fill="white" transform="translate(0.726562 0.303223)"/>
</clipPath>
</defs>
</svg>
