<svg width="678" height="515" viewBox="0 0 678 515" fill="none" xmlns="http://www.w3.org/2000/svg">
<g clip-path="url(#clip0_2_157)">
<path d="M364.711 514.761C500.997 514.761 611.478 483.143 611.478 444.142C611.478 405.14 500.997 373.523 364.711 373.523C228.426 373.523 117.945 405.14 117.945 444.142C117.945 483.143 228.426 514.761 364.711 514.761Z" fill="#F5F5F5"/>
<path d="M599.492 169.427C599.492 169.427 555.779 213.211 580.456 278.18C605.132 343.15 538.153 451.196 538.153 451.196C538.153 451.196 538.858 451.091 540.205 450.858C629.985 434.982 674.594 332.133 624.669 255.73C606.134 227.327 590.869 194.002 599.492 169.427Z" fill="#2091F9"/>
<path d="M599.492 169.427C599.492 169.427 574.815 223.097 599.492 266.881C624.169 310.665 603.722 433.542 538.153 451.196" stroke="#535461" stroke-width="2" stroke-miterlimit="10"/>
<path d="M677.343 346.518C677.343 346.518 627.461 338.559 622.914 383.339C618.366 428.118 527.027 434.319 527.027 434.319C527.027 434.319 527.62 434.728 528.741 435.463C604.181 485.065 676.3 467.057 665.435 401.191C661.367 376.708 661.691 352.111 677.343 346.518Z" fill="#2091F9"/>
<path opacity="0.2" d="M677.343 346.518C677.343 346.518 627.461 338.559 622.914 383.339C618.366 428.118 527.027 434.319 527.027 434.319C527.027 434.319 527.62 434.728 528.741 435.463C604.181 485.065 676.3 467.057 665.435 401.191C661.367 376.708 661.691 352.111 677.343 346.518Z" fill="#F5F5F5"/>
<path d="M677.343 346.518C677.343 346.518 638.622 355.035 641.802 390.302C644.982 425.569 584.277 467.827 526.999 434.304" stroke="#535461" stroke-width="2" stroke-miterlimit="10"/>
<path opacity="0.2" d="M107.242 0.817012C101.56 0.619279 95.7361 0.817012 90.406 2.80847C75.9032 8.22494 69.0289 25.9432 71.2639 41.2887C73.4989 56.6342 82.6927 69.96 92.232 82.17C101.771 94.3801 112.107 106.435 117.339 121.01C119.947 128.291 121.167 136.448 118.516 143.714C114.427 154.922 102.096 161.186 90.2579 162.485C78.4202 163.784 66.5331 161.249 54.653 160.366C49.6684 160.013 44.5427 159.971 39.8471 161.609C34.6932 163.396 30.3994 167.04 26.4512 170.839C11.0459 185.74 -1.28537 206.078 0.709908 227.433C2.96606 251.641 23.0881 270.779 45.1279 281.04C52.4251 284.444 60.1454 287.198 66.5683 292.057C83.4895 304.867 87.2897 328.87 85.6046 350.063C83.9195 371.256 78.1805 392.47 81.3743 413.479C85.1322 437.913 101.764 459.981 124.199 470.292C144.187 479.472 169.202 478.9 186.948 465.913C195.599 459.558 202.142 450.794 207.832 441.705C216.419 427.994 223.387 413.329 228.595 398.006C231.07 390.725 233.397 382.894 239.171 377.83C242.696 374.716 247.265 372.972 251.784 371.616C265.406 367.534 279.753 366.411 293.502 362.781C307.25 359.152 321.083 352.386 328.557 340.289C339.132 323.122 334.197 301.166 334.246 280.969C334.331 234.954 361.821 193.755 371.966 148.912C375.28 134.252 376.514 118.03 369.111 104.959C364.077 96.0396 355.595 89.6839 346.676 84.7406C327.076 73.837 304.797 68.9855 282.877 64.2611C252.412 57.7076 215.418 56.8602 191.806 35.6604C169.146 15.3221 138.145 0.817012 107.242 0.817012Z" fill="#2091F9"/>
<g opacity="0.5">
<path opacity="0.5" d="M217.752 178.925C217.75 167.834 216.016 156.811 212.612 146.257L204.151 119.979C204.151 119.542 204.151 119.111 204.151 118.68C204.412 101.837 191.305 93.4338 186.257 94.3448C181.089 95.277 166.748 88.0739 166.748 88.0739V88.2716C165.765 87.1379 164.878 85.9237 164.097 84.6418C166.575 82.8343 168.667 80.5489 170.251 77.92C171.834 75.2911 172.877 72.3717 173.317 69.3334C173.758 66.2951 173.588 63.1992 172.817 60.2277C172.046 57.2562 170.69 54.469 168.828 52.0299C170.378 50.8634 171.56 49.2749 172.234 47.4538C173.404 44.1559 172.509 40.3919 170.605 37.4542C169.796 36.2278 168.849 35.0977 167.785 34.0857C166.172 32.4856 164.411 31.0431 162.525 29.7779C157.823 26.5153 152.655 23.7118 147.014 22.716C146.038 22.4852 145.022 22.4852 144.046 22.716C143.199 23.0584 142.392 23.4942 141.642 24.0154C137.778 26.2187 132.97 25.2654 128.514 25.0323C124.058 24.7993 118.643 26.0492 117.233 30.2369C116.796 31.5293 116.824 32.9275 116.528 34.2552C115.823 37.5036 113.32 40.0247 111.388 42.7294C109.456 45.4341 108.011 49.0851 109.618 52.0229C110.168 53.0116 111.029 53.9225 111.029 55.0524C111.029 55.8646 110.549 56.5919 110.324 57.3688C109.837 59.1342 110.754 60.8997 112.164 62.1779C112.771 62.834 113.487 63.381 114.279 63.7951C116.514 64.9391 119.087 65.2922 121.365 66.3515C122.501 66.8862 123.544 67.6016 124.453 68.47C125.566 69.637 126.435 71.0141 127.012 72.5211C127.588 74.0281 127.859 75.635 127.809 77.248L128.281 77.2974C128.281 77.4387 128.281 77.5728 128.281 77.7141C128.775 77.7706 129.296 77.82 129.811 77.8412C130.551 79.0383 131.399 80.1658 132.342 81.2097C132.182 81.8123 132.001 82.4244 131.799 83.0458C130.142 84.1969 116.591 93.2361 101.179 91.061C84.7303 88.7377 75.325 160.769 75.325 160.769C74.7154 164.888 74.4184 169.048 74.4367 173.212C74.3662 183.805 76.5871 197.667 88.9606 195.627L95.5387 193.459V229.086C95.5387 229.086 96.4764 238.845 93.1909 245.328C89.9054 251.811 103.534 249.509 103.534 249.509C103.534 249.509 104.056 250.053 105.015 250.978L104.711 251.832L105.113 252.242C103.321 258.38 100.904 264.317 97.9006 269.96L98.2884 270.158C98.0416 270.631 97.9006 270.864 97.9006 270.864C97.9006 270.864 102.963 273.456 109.929 276.796C115.527 295.75 127.781 339.647 123.748 348.008L123.86 348.248C124.615 349.816 128.831 359.06 127.978 367.527C127.209 375.098 137.672 409.496 141.578 421.988L139.731 422.363L146.309 446.062L144.899 461.401C144.899 461.401 136.911 482.777 155.707 478.597C174.504 474.416 169.336 457.22 169.336 457.22L169.808 422.363C169.808 422.363 167.996 421.353 165.761 420.385C164.224 416.226 160.875 406.396 160.875 399.595C160.875 390.768 154.763 352.655 154.763 352.655V352.577V352.429V352.386L154.727 351.878V351.793C154.727 351.32 154.65 350.67 154.593 349.879V349.837C153.888 339.534 151.773 304.528 153.317 286.28C154.675 285.353 156.088 284.508 157.548 283.752C162.123 295.333 173.919 326.625 173.164 339.753C172.227 355.995 172.932 343.241 173.164 341.165C173.235 340.522 173.284 341.299 173.305 343.044C173.305 343.361 173.305 343.714 173.305 344.089C173.305 344.463 173.305 344.88 173.305 345.31C173.305 345.741 173.305 346.207 173.305 346.723C173.305 346.968 173.305 347.217 173.305 347.471C173.305 347.98 173.305 348.512 173.305 349.067C173.305 349.345 173.305 349.628 173.305 349.915C173.305 351.327 173.305 352.895 173.256 354.526C173.256 354.851 173.256 355.181 173.256 355.515C173.256 356.511 173.256 357.528 173.207 358.559C173.207 359.971 173.15 361.341 173.122 362.76C173.052 365.938 172.96 369.151 172.847 372.16C172.847 372.494 172.835 372.826 172.812 373.155C172.788 373.815 172.763 374.46 172.734 375.09C172.706 375.721 172.678 376.338 172.65 376.941C172.622 377.539 172.591 378.12 172.558 378.685C172.523 379.349 172.48 379.984 172.445 380.592L169.893 380.224L169.35 386.1C168.495 395.428 169.698 404.831 172.875 413.641C173.75 416.056 174.426 418.055 174.574 418.768C175.047 421.092 174.574 437.835 174.574 437.835C174.574 437.835 177.395 459.678 190.558 455.49C196.48 453.605 199.357 447.87 200.732 442.122C202.257 435.458 201.688 428.485 199.103 422.158C197.235 417.455 195.324 410.859 196.671 405.76C199.018 396.933 199.018 384.384 199.018 384.384L197.566 384.179C197.928 383.49 198.255 382.783 198.546 382.061C198.546 382.061 198.074 349.992 202.304 345.812C204.631 343.51 204.419 337.98 203.714 333.461C202.707 326.92 202.47 320.283 203.009 313.687C203.298 310.291 203.714 307.332 204.201 306.279C205.441 303.822 206.682 279.049 201.19 267.128L202.318 266.775L202.142 265.899L202.318 265.843C203.147 268.058 204.088 270.229 205.138 272.347C205.416 272.565 205.735 272.723 206.076 272.813C221.298 270.137 221.911 255.907 221.065 248.139C221.707 248.45 222.059 248.647 222.059 248.647L223.469 228.168C224.915 224.898 225.451 220.725 225.415 216.212C225.479 200.083 217.752 178.925 217.752 178.925ZM200.971 237.136C199.928 228.217 198.483 219.821 198.483 219.821L191.432 194.723V185.584L202.614 227.391L200.971 237.136Z" fill="url(#paint0_linear_2_157)"/>
</g>
<path d="M169.273 374.229L168.751 379.97C167.927 389.093 169.094 398.285 172.17 406.911C173.009 409.277 173.665 411.226 173.806 411.925C174.257 414.199 173.806 430.547 173.806 430.547C173.806 430.547 176.527 451.896 189.225 447.807C194.936 445.971 197.686 440.356 199.04 434.742C200.507 428.231 199.956 421.426 197.46 415.237C195.655 410.64 193.808 404.178 195.112 399.214C197.383 390.584 197.383 378.325 197.383 378.325L169.273 374.229Z" fill="#5A5773"/>
<path d="M155.672 275.673C155.672 275.673 173.355 318.821 172.445 334.711C171.536 350.6 172.22 338.114 172.445 336.074C172.847 332.437 172.445 375.62 171.085 380.563C171.085 380.563 189.677 394.186 196.932 376.023C196.932 376.023 196.48 344.689 200.555 340.6C202.798 338.355 202.579 332.945 201.916 328.531C200.938 322.147 200.701 315.67 201.211 309.231C201.486 305.912 201.867 302.989 202.36 301.993C203.721 299.267 205.082 268.385 196.917 259.756L155.672 275.673Z" fill="#605D82"/>
<path opacity="0.1" d="M173.355 380.585C174.715 375.592 175.117 332.437 174.715 336.095C174.49 338.136 173.806 350.628 174.715 334.732C175.625 318.835 157.942 275.694 157.942 275.694L197.503 260.455C197.319 260.222 197.129 260.003 196.939 259.798L155.679 275.694C155.679 275.694 173.362 318.842 172.452 334.732C171.543 350.621 172.227 338.136 172.452 336.095C172.854 332.458 172.452 375.641 171.092 380.585C171.092 380.585 178.516 386.022 185.813 385.443C179.319 384.956 173.355 380.585 173.355 380.585Z" fill="black"/>
<path d="M140.253 415.555L146.598 438.718L145.237 453.703C145.237 453.703 137.531 474.593 155.665 470.504C173.799 466.415 168.814 449.615 168.814 449.615L169.265 415.555C169.265 415.555 162.011 411.466 158.838 411.925C155.665 412.384 140.253 415.555 140.253 415.555Z" fill="#5A5773"/>
<path d="M108.97 264.777C108.97 264.777 129.825 332.444 124.84 342.888C124.84 342.888 129.825 352.881 128.923 361.955C128.02 371.03 143.433 419.63 143.433 419.63L166.107 415.541C166.107 415.541 160.664 401.919 160.664 393.289C160.664 384.659 154.77 347.387 154.77 347.387C154.77 347.387 149.785 279.261 155.679 271.994L108.97 264.777Z" fill="#605D82"/>
<g opacity="0.1">
<path opacity="0.1" d="M153.917 277.53C150.159 292.954 154.311 349.71 154.311 349.71C154.311 349.71 160.206 386.947 160.206 395.612C160.206 402.201 163.371 411.692 164.873 415.816L166.1 415.597C166.1 415.597 160.657 401.975 160.657 393.345C160.657 384.716 154.763 347.443 154.763 347.443C154.763 347.443 150.97 295.574 153.917 277.53Z" fill="black"/>
<path opacity="0.1" d="M124.84 342.888L124.953 343.121C124.989 342.888 125.024 342.641 125.045 342.415C124.985 342.576 124.917 342.734 124.84 342.888V342.888Z" fill="black"/>
<path opacity="0.1" d="M154.65 274.225C154.856 273.442 155.202 272.703 155.672 272.043L108.97 264.777C108.97 264.777 109.245 265.659 109.717 267.234L154.65 274.225Z" fill="black"/>
</g>
<path d="M217.787 240.251C217.787 240.251 224.591 265.673 204.186 269.317C203.855 269.231 203.546 269.077 203.277 268.865C203.277 268.865 191.489 245.702 200.555 236.621L217.787 240.251Z" fill="#FAC3CA"/>
<path d="M134.359 71.3231C134.359 71.3231 135.719 90.3902 120.758 99.4788C105.797 108.567 152.485 133.538 152.485 133.538L176.972 94.479C176.972 94.479 166.551 95.8278 160.206 77.6788L134.359 71.3231Z" fill="#FAC3CA"/>
<path opacity="0.1" d="M124.382 100.828C124.382 100.828 147.508 148.969 168.363 103.554L200.555 263.407C200.555 263.407 150.673 278.851 150.229 286.118C149.785 293.384 99.91 267.503 99.91 267.503C99.91 267.503 110.789 247.517 108.074 235.258C105.36 222.999 124.382 100.828 124.382 100.828Z" fill="black"/>
<path d="M124.382 99.9167C124.382 99.9167 147.508 148.058 168.363 102.643L200.555 262.503C200.555 262.503 150.673 277.947 150.229 285.214C149.785 292.48 99.91 266.591 99.91 266.591C99.91 266.591 110.789 246.606 108.074 234.347C105.36 222.087 124.382 99.9167 124.382 99.9167Z" fill="#E1E7EF"/>
<path d="M147.056 428.274C147.056 428.274 141.162 415.103 154.763 415.103C168.363 415.103 166.1 426.911 166.1 426.911L147.056 428.274Z" fill="#5A5773"/>
<path d="M177.888 394.207C177.888 394.207 172.445 380.126 186.053 379.674C199.66 379.222 192.856 392.385 192.856 392.385L177.888 394.207Z" fill="#5A5773"/>
<path opacity="0.1" d="M166.325 89.684C166.325 89.684 180.151 96.7458 185.143 95.8137C190.135 94.8815 203.277 103.532 202.374 120.792L210.567 146.539C213.844 156.863 215.509 167.633 215.502 178.466V178.466C215.502 178.466 227.291 211.163 220.945 225.696L219.585 245.681C219.585 245.681 209.157 239.777 198.271 241.592L201.014 225.272L188.746 178.939L168.342 129.435L166.325 89.684Z" fill="black"/>
<path d="M166.325 88.7871C166.325 88.7871 180.151 95.849 185.143 94.9168C190.135 93.9847 203.277 102.635 202.374 119.895L210.567 145.642C213.844 155.967 215.509 166.736 215.502 177.569V177.569C215.502 177.569 227.291 210.266 220.945 224.799L219.585 244.784C219.585 244.784 209.157 238.881 198.271 240.696L200.993 224.347L188.746 178.028L168.363 128.524L166.325 88.7871Z" fill="#67647E"/>
<path opacity="0.1" d="M189.225 143.969V195.288L196.029 219.813C196.029 219.813 200.562 246.606 199.202 254.784C197.841 262.962 176.076 264.777 170.182 257.962C164.288 251.147 167.461 192.992 167.461 192.992L166.325 107.861L167.235 105.135L189.225 143.969Z" fill="black"/>
<path d="M190.156 141.702V193.021L196.96 217.547C196.96 217.547 201.493 244.339 200.132 252.517C198.772 260.695 177.007 262.51 171.113 255.695C165.218 248.88 168.391 190.726 168.391 190.726L167.256 105.573L190.156 141.702Z" fill="#67647E"/>
<path opacity="0.1" d="M98.7678 184.391L113.278 229.587L106.474 248.887C106.474 248.887 138.666 282.947 159.07 266.599C159.07 266.599 161.341 197.11 156.8 180.761C152.26 164.413 130.502 109.436 130.502 109.436L125.997 94.924L101.969 108.546L98.7678 184.391Z" fill="black"/>
<path d="M97.6327 182.117V226.607C97.6327 226.607 98.5422 236.148 95.3625 242.503C92.1827 248.859 105.339 246.592 105.339 246.592C105.339 246.592 137.531 280.652 157.935 264.303C157.935 264.303 160.206 194.814 155.665 178.466C151.125 162.118 129.367 107.141 129.367 107.141L124.833 92.6076L100.805 106.23L97.6327 182.117Z" fill="#67647E"/>
<path opacity="0.1" d="M132.772 84.7053C132.772 84.7053 118.946 94.9239 103.076 92.65C87.2051 90.376 78.1382 160.776 78.1382 160.776C78.1382 160.776 72.244 197.11 91.2873 193.932L133.456 179.85C133.456 179.85 124.389 170.31 125.75 158.05L105.339 166.221L106.255 127.168L132.772 84.7053Z" fill="black"/>
<path opacity="0.1" d="M79.0406 159.865C79.0406 159.865 73.1464 196.199 92.1897 193.021L134.359 178.939C134.359 178.939 125.292 169.406 126.652 157.139L106.255 165.317L79.0406 159.865Z" fill="black"/>
<path d="M125.651 161.927C125.651 161.927 139.802 143.291 150.222 152.238C160.643 161.186 129.388 177.583 129.388 177.583L125.651 161.927Z" fill="#FAC3CA"/>
<path d="M132.772 83.7944C132.772 83.7944 118.946 94.013 103.076 91.7391C87.2051 89.4651 78.1382 159.865 78.1382 159.865C78.1382 159.865 72.244 196.199 91.2873 193.021L133.456 178.939C133.456 178.939 124.389 169.399 125.75 157.139L105.339 165.317L106.255 126.258L129.381 107.19L132.772 83.7944Z" fill="#67647E"/>
<path opacity="0.1" d="M160.657 78.5686L134.81 72.2129C134.81 72.2129 136.156 73.7383 134.584 79.7056C138.744 84.4865 143.856 90.8351 150.68 90.8351C155.564 90.8443 160.32 89.2658 164.231 86.3367C162.772 83.8798 161.574 81.2762 160.657 78.5686Z" fill="black"/>
<path d="M150.229 89.9312C162.752 89.9312 172.903 79.7631 172.903 67.2201C172.903 54.6772 162.752 44.5091 150.229 44.5091C137.707 44.5091 127.555 54.6772 127.555 67.2201C127.555 79.7631 137.707 89.9312 150.229 89.9312Z" fill="#FAC3CA"/>
<path opacity="0.1" d="M158.824 57.3617C164.083 56.4649 169.865 54.1274 171.627 49.0852C172.755 45.8579 171.895 42.1857 170.055 39.3115C168.215 36.4373 165.508 34.227 162.716 32.2496C158.182 29.0577 153.183 26.3176 147.726 25.3572C146.785 25.1319 145.805 25.1319 144.864 25.3572C144.046 25.6927 143.268 26.1191 142.544 26.6284C138.815 28.7822 134.175 27.8501 129.853 27.6241C125.531 27.3981 120.349 28.6198 118.989 32.7087C118.566 33.9727 118.594 35.3357 118.284 36.6351C117.579 39.8129 115.188 42.2846 113.348 44.9328C111.508 47.581 110.091 51.1614 111.642 54.0144C112.171 54.9819 113.052 55.8717 113.052 56.9733C112.916 57.7563 112.679 58.5183 112.347 59.2402C111.705 61.5847 113.574 63.9505 115.731 65.0663C117.889 66.182 120.37 66.5281 122.57 67.5662C124.629 68.5838 126.353 70.1723 127.537 72.1428C128.72 74.1133 129.314 76.3829 129.247 78.6816C131.249 78.9146 133.583 79.0347 134.937 77.5376C135.543 76.8667 135.839 75.9698 136.389 75.2566C137.094 74.3244 138.194 73.7736 139.097 73.025C143.841 69.1198 140.471 63.7245 143.158 59.5156C144.568 57.3476 146.81 58.0114 149.08 58.0467C152.342 58.1232 155.604 57.8938 158.824 57.3617V57.3617Z" fill="black"/>
<path d="M158.373 56.9098C163.632 56.0129 169.414 53.6754 171.176 48.6332C172.304 45.4059 171.444 41.7338 169.604 38.8596C167.764 35.9854 165.056 33.775 162.264 31.7977C157.731 28.6057 152.732 25.8657 147.275 24.9053C146.334 24.6799 145.353 24.6799 144.413 24.9053C143.594 25.2407 142.816 25.6671 142.093 26.1764C138.363 28.3303 133.724 27.3981 129.402 27.1721C125.08 26.9462 119.898 28.1679 118.537 32.2567C118.114 33.5208 118.143 34.8837 117.832 36.1831C117.127 39.361 114.737 41.8326 112.897 44.4808C111.057 47.129 109.64 50.7094 111.191 53.5624C111.72 54.5299 112.601 55.4197 112.601 56.5214C112.465 57.3044 112.228 58.0664 111.896 58.7882C111.254 61.1328 113.123 63.4985 115.28 64.6143C117.437 65.7301 119.919 66.0761 122.119 67.1142C124.186 68.1308 125.917 69.7225 127.105 71.6987C128.293 73.675 128.887 75.9522 128.817 78.2579C130.819 78.4909 133.153 78.611 134.507 77.1138C135.113 76.443 135.409 75.5461 135.959 74.8329C136.664 73.9007 137.764 73.3499 138.666 72.6013C143.411 68.6961 140.041 63.3008 142.728 59.0919C144.138 56.9239 146.38 57.5877 148.65 57.623C151.906 57.6888 155.161 57.45 158.373 56.9098Z" fill="#4A4347"/>
<path opacity="0.1" d="M185.82 133.298C185.82 133.298 190.805 159.187 188.541 169.18C187.159 174.993 187.363 181.071 189.134 186.778" fill="black"/>
<path opacity="0.1" d="M105.24 144.195C105.24 144.195 103.069 161.454 106.686 165.084Z" fill="black"/>
<path d="M231.845 356.892C232.126 356.892 232.395 356.78 232.593 356.582C232.792 356.383 232.903 356.114 232.903 355.833C232.903 355.552 232.792 355.282 232.593 355.084C232.395 354.885 232.126 354.773 231.845 354.773C231.565 354.773 231.296 354.885 231.098 355.084C230.899 355.282 230.788 355.552 230.788 355.833C230.788 356.114 230.899 356.383 231.098 356.582C231.296 356.78 231.565 356.892 231.845 356.892Z" fill="black"/>
<g opacity="0.5">
<path opacity="0.5" d="M557.485 233.485V232.899L365.12 84.7407C364.999 84.6506 364.852 84.6021 364.701 84.6021C364.55 84.6021 364.403 84.6506 364.281 84.7407L171.909 232.899V462.552H172.276V462.919H557.859V233.266L557.485 233.485Z" fill="url(#paint1_linear_2_157)"/>
</g>
<path d="M550.844 456.147H178.579V234.403L364.711 91.0469L550.844 234.403V456.147Z" fill="white"/>
<path d="M537.448 443.005H191.975V237.221L364.711 104.182L537.448 237.221V443.005Z" fill="#E0E0E0"/>
<path d="M423.313 101.107L212.575 156.444L282.84 424.904L493.578 369.568L423.313 101.107Z" fill="#2091F9"/>
<path d="M474.699 141.893H256.839V419.425H474.699V141.893Z" fill="#F5F5F5"/>
<path opacity="0.05" d="M180.342 234.757L366.474 345.628L180.342 456.5V234.757Z" fill="black"/>
<path d="M178.932 234.757L365.064 345.628L178.932 456.5V234.757Z" fill="white"/>
<path opacity="0.05" d="M549.786 234.757L363.654 345.628L549.786 456.5V234.757Z" fill="black"/>
<path d="M551.196 234.757L365.064 345.628L551.196 456.5V234.757Z" fill="white"/>
<path opacity="0.05" d="M178.932 452.969L365.064 307.494L551.196 452.969H178.932Z" fill="black"/>
<path d="M178.932 456.5L365.064 311.025L551.196 456.5H178.932Z" fill="white"/>
<path d="M216.757 473.343C216.757 473.343 207.409 441.564 218.513 418.161C223.231 408.378 224.654 397.326 222.567 386.665C221.538 381.612 220.049 376.665 218.118 371.884" stroke="#535461" stroke-width="2" stroke-miterlimit="10"/>
<path d="M225.021 357.097C225.021 360.995 217.97 372.287 217.97 372.287C217.97 372.287 210.92 360.988 210.92 357.097C210.92 355.224 211.662 353.428 212.985 352.103C214.307 350.779 216.1 350.035 217.97 350.035C219.84 350.035 221.633 350.779 222.956 352.103C224.278 353.428 225.021 355.224 225.021 357.097Z" fill="#6C63FF"/>
<path d="M236.689 378.678C234.574 381.948 222.532 387.597 222.532 387.597C222.532 387.597 222.75 374.278 224.865 371.009C225.92 369.53 227.503 368.515 229.285 368.175C231.068 367.836 232.912 368.198 234.435 369.185C235.958 370.173 237.042 371.711 237.462 373.479C237.882 375.247 237.605 377.109 236.689 378.678Z" fill="#6C63FF"/>
<path d="M236.153 415.548C232.677 417.299 219.437 416.092 219.437 416.092C219.437 416.092 226.339 404.708 229.808 402.957C230.638 402.491 231.554 402.199 232.5 402.098C233.445 401.996 234.402 402.088 235.312 402.366C236.222 402.645 237.066 403.105 237.793 403.719C238.521 404.333 239.117 405.088 239.545 405.939C239.974 406.79 240.226 407.718 240.286 408.669C240.347 409.62 240.215 410.574 239.898 411.472C239.581 412.37 239.086 413.195 238.442 413.897C237.799 414.599 237.02 415.163 236.153 415.555V415.548Z" fill="#6C63FF"/>
<path d="M229.498 443.365C226.367 445.681 213.112 446.726 213.112 446.726C213.112 446.726 217.991 434.34 221.122 432.023C222.628 431.017 224.463 430.629 226.247 430.941C228.03 431.253 229.626 432.24 230.703 433.698C231.78 435.156 232.255 436.973 232.031 438.773C231.806 440.573 230.899 442.217 229.498 443.365V443.365Z" fill="#6C63FF"/>
<path d="M207.719 388.346C210.539 391.057 223.505 393.875 223.505 393.875C223.505 393.875 220.325 380.945 217.533 378.233C216.175 377.031 214.407 376.398 212.596 376.468C210.784 376.537 209.069 377.302 207.806 378.604C206.544 379.906 205.83 381.645 205.813 383.461C205.797 385.276 206.479 387.028 207.719 388.353V388.346Z" fill="#6C63FF"/>
<path d="M200.344 420.979C203.82 422.73 217.061 421.523 217.061 421.523C217.061 421.523 210.158 410.139 206.689 408.387C205.033 407.638 203.152 407.558 201.438 408.164C199.724 408.771 198.31 410.017 197.492 411.642C196.673 413.268 196.513 415.147 197.044 416.888C197.576 418.629 198.758 420.097 200.344 420.986V420.979Z" fill="#6C63FF"/>
<path d="M197.524 453.675C200.654 455.992 213.909 457.037 213.909 457.037C213.909 457.037 209.03 444.65 205.9 442.334C205.161 441.729 204.307 441.28 203.389 441.015C202.472 440.75 201.51 440.675 200.563 440.793C199.616 440.912 198.702 441.222 197.878 441.704C197.054 442.187 196.336 442.832 195.768 443.601C195.201 444.37 194.795 445.246 194.575 446.177C194.356 447.107 194.327 448.073 194.491 449.015C194.655 449.957 195.009 450.856 195.53 451.657C196.051 452.458 196.73 453.145 197.524 453.675V453.675Z" fill="#6C63FF"/>
<path opacity="0.5" d="M356.956 154.604H269.53V161.666H356.956V154.604Z" fill="#6C63FF"/>
<path opacity="0.5" d="M458.483 182.852H269.53V189.913H458.483V182.852Z" fill="#6C63FF"/>
<path opacity="0.5" d="M458.483 201.213H269.53V208.274H458.483V201.213Z" fill="#6C63FF"/>
<path opacity="0.4" d="M458.483 219.573H269.53V226.635H458.483V219.573Z" fill="#6C63FF"/>
<path opacity="0.4" d="M458.483 237.934H269.53V244.996H458.483V237.934Z" fill="#6C63FF"/>
<path opacity="0.3" d="M377.402 256.295H269.53V263.357H377.402V256.295Z" fill="#6C63FF"/>
<path opacity="0.3" d="M416.885 274.656H269.53V281.718H416.885V274.656Z" fill="#6C63FF"/>
</g>
<defs>
<linearGradient id="paint0_linear_2_157" x1="74.4437" y1="250.879" x2="225.338" y2="250.879" gradientUnits="userSpaceOnUse">
<stop stop-color="#808080" stop-opacity="0.25"/>
<stop offset="0.54" stop-color="#808080" stop-opacity="0.12"/>
<stop offset="1" stop-color="#808080" stop-opacity="0.1"/>
</linearGradient>
<linearGradient id="paint1_linear_2_157" x1="245956" y1="280247" x2="245956" y2="77564" gradientUnits="userSpaceOnUse">
<stop stop-color="#808080" stop-opacity="0.25"/>
<stop offset="0.54" stop-color="#808080" stop-opacity="0.12"/>
<stop offset="1" stop-color="#808080" stop-opacity="0.1"/>
</linearGradient>
<clipPath id="clip0_2_157">
<rect width="677" height="514" fill="white" transform="translate(0.498413 0.76062)"/>
</clipPath>
</defs>
</svg>
