<svg width="46" height="47" viewBox="0 0 46 47" fill="none" xmlns="http://www.w3.org/2000/svg">
<path d="M23.0002 27.1361C27.2283 27.1361 30.6668 23.6976 30.6668 19.4694C30.6668 15.2412 27.2283 11.8027 23.0002 11.8027C18.772 11.8027 15.3335 15.2412 15.3335 19.4694C15.3335 23.6976 18.772 27.1361 23.0002 27.1361ZM23.0002 15.6361C25.1142 15.6361 26.8335 17.3553 26.8335 19.4694C26.8335 21.5835 25.1142 23.3027 23.0002 23.3027C20.8861 23.3027 19.1668 21.5835 19.1668 19.4694C19.1668 17.3553 20.8861 15.6361 23.0002 15.6361Z" fill="white"/>
<path d="M21.8883 42.1129C22.2127 42.3446 22.6014 42.4691 23 42.4691C23.3986 42.4691 23.7873 42.3446 24.1117 42.1129C24.6943 41.7009 38.3889 31.8128 38.3333 19.4694C38.3333 11.015 31.4544 4.13611 23 4.13611C14.5456 4.13611 7.66667 11.015 7.66667 19.4599C7.61109 31.8128 21.3057 41.7009 21.8883 42.1129ZM23 7.96944C29.3423 7.96944 34.5 13.1272 34.5 19.479C34.5403 27.9852 26.0897 35.6231 23 38.1282C19.9123 35.6212 11.4598 27.9814 11.5 19.4694C11.5 13.1272 16.6578 7.96944 23 7.96944Z" fill="white"/>
</svg>
