<svg width="33" height="33" viewBox="0 0 33 33" fill="none" xmlns="http://www.w3.org/2000/svg">
<path d="M31.197 0.785645H1.73786C1.0294 0.785645 0.457031 1.35802 0.457031 2.06648V31.5256C0.457031 32.2341 1.0294 32.8064 1.73786 32.8064H31.197C31.9054 32.8064 32.4778 32.2341 32.4778 31.5256V2.06648C32.4778 1.35802 31.9054 0.785645 31.197 0.785645ZM9.95519 28.0714H5.20411V12.7894H9.95519V28.0714ZM7.58165 10.7001C7.03701 10.7001 6.50459 10.5386 6.05173 10.236C5.59887 9.93339 5.24591 9.50331 5.03749 9.00012C4.82906 8.49693 4.77453 7.94324 4.88078 7.40905C4.98704 6.87487 5.24931 6.38419 5.63443 5.99907C6.01956 5.61395 6.51023 5.35167 7.04442 5.24542C7.5786 5.13916 8.13229 5.1937 8.63548 5.40212C9.13867 5.61055 9.56875 5.96351 9.87134 6.41637C10.1739 6.86923 10.3354 7.40164 10.3354 7.94629C10.3314 9.46728 9.09864 10.7001 7.58165 10.7001ZM27.7427 28.0714H22.9957V20.6385C22.9957 18.8654 22.9636 16.5879 20.5261 16.5879C18.0565 16.5879 17.6762 18.5171 17.6762 20.5104V28.0714H12.9331V12.7894H17.4881V14.8788H17.5521C18.1845 13.678 19.7335 12.4092 22.047 12.4092C26.8582 12.4092 27.7427 15.5752 27.7427 19.6899V28.0714V28.0714Z" fill="white"/>
</svg>
