<svg width="35" height="28" viewBox="0 0 35 28" fill="none" xmlns="http://www.w3.org/2000/svg">
<path d="M34.1455 3.48119C32.9207 4.00953 31.5878 4.38978 30.2149 4.53788C31.6403 3.69107 32.7077 2.35326 33.2168 0.775436C31.8793 1.57111 30.414 2.12905 28.886 2.42451C28.2474 1.74177 27.475 1.19787 26.617 0.826699C25.7589 0.455529 24.8337 0.265041 23.8988 0.267106C20.1163 0.267106 17.0744 3.3331 17.0744 7.09554C17.0744 7.62388 17.1384 8.15222 17.2425 8.66055C11.5788 8.36436 6.52753 5.6586 3.16936 1.51592C2.55746 2.56106 2.2368 3.75107 2.24075 4.96215C2.24075 7.33169 3.44553 9.42105 5.28273 10.6498C4.20004 10.6072 3.14271 10.3096 2.19672 9.78128V9.86533C2.19672 13.1835 4.54225 15.9333 7.66827 16.5657C7.08133 16.7181 6.47753 16.7961 5.87111 16.7978C5.42682 16.7978 5.00655 16.7538 4.58227 16.6938C5.44683 19.3995 7.96447 21.3648 10.9624 21.4288C8.61689 23.266 5.67898 24.3467 2.48891 24.3467C1.91654 24.3467 1.3882 24.3267 0.839844 24.2627C3.86581 26.2039 7.45614 27.3247 11.3226 27.3247C23.8748 27.3247 30.7432 16.9259 30.7432 7.90006C30.7432 7.60387 30.7432 7.30767 30.7232 7.01148C32.0521 6.03885 33.2168 4.83407 34.1455 3.48119Z" fill="white"/>
</svg>
