<svg width="33" height="33" viewBox="0 0 33 33" fill="none" xmlns="http://www.w3.org/2000/svg">
<path d="M31.2126 0.785645H1.75349C1.04503 0.785645 0.472656 1.35802 0.472656 2.06648V31.5256C0.472656 32.2341 1.04503 32.8064 1.75349 32.8064H31.2126C31.9211 32.8064 32.4934 32.2341 32.4934 31.5256V2.06648C32.4934 1.35802 31.9211 0.785645 31.2126 0.785645ZM27.5142 10.1317H24.9565C22.9512 10.1317 22.563 11.0843 22.563 12.4852V15.5712H27.3501L26.7257 20.4024H22.563V32.8064H17.5718V20.4064H13.397V15.5712H17.5718V12.0089C17.5718 7.87424 20.0974 5.62078 23.7878 5.62078C25.5569 5.62078 27.0739 5.75287 27.5182 5.81291V10.1317H27.5142Z" fill="white"/>
</svg>
